<svg width="28" height="42" viewBox="0 0 28 42" fill="none" xmlns="http://www.w3.org/2000/svg">
<path d="M14 3.5C19.7908 3.5 24.5 8.20925 24.5 14V28C24.5 33.7907 19.7908 38.5 14 38.5C8.20925 38.5 3.5 33.7907 3.5 28V14C3.5 8.20925 8.20925 3.5 14 3.5ZM14 0C6.2685 0 0 6.2685 0 14V28C0 35.7315 6.2685 42 14 42C21.7315 42 28 35.7315 28 28V14C28 6.2685 21.7315 0 14 0ZM14 15.75C12.5492 15.75 11.375 14.574 11.375 13.125C11.375 11.676 12.5492 10.5 14 10.5C15.4508 10.5 16.625 11.676 16.625 13.125C16.625 14.574 15.4508 15.75 14 15.75Z" fill="white"/>
</svg>
